<?xml version="1.0" standalone="no"?>
<!DOCTYPE svg PUBLIC "-//W3C//DTD SVG 20010904//EN"
 "http://www.w3.org/TR/2001/REC-SVG-20010904/DTD/svg10.dtd">
<svg version="1.0" xmlns="http://www.w3.org/2000/svg"
 width="512.000000pt" height="512.000000pt" viewBox="0 0 512.000000 512.000000"
 preserveAspectRatio="xMidYMid meet">
<metadata>
Created by potrace 1.16, written by Peter Selinger 2001-2019
</metadata>
<g transform="translate(0.000000,512.000000) scale(0.100000,-0.100000)"
fill="#000000" stroke="none">
<path d="M1345 4509 c-264 -36 -502 -155 -690 -343 -153 -153 -257 -334 -312
-543 -34 -129 -43 -362 -19 -498 30 -175 111 -365 217 -510 30 -41 448 -465
1018 -1032 892 -889 969 -962 1000 -963 31 0 97 64 960 921 509 507 952 951
984 987 140 160 227 337 275 556 23 108 22 359 -2 464 -79 354 -297 649 -596
811 -177 95 -313 131 -525 138 -180 6 -275 -7 -427 -57 -194 -65 -313 -145
-516 -344 l-152 -150 -158 155 c-86 86 -186 176 -222 201 -129 91 -303 164
-459 194 -97 19 -286 26 -376 13z m303 -174 c151 -14 345 -95 488 -204 43 -33
149 -130 234 -215 140 -141 158 -156 189 -156 32 0 51 16 210 173 195 193 265
247 402 312 170 80 342 110 532 94 131 -11 236 -41 362 -103 279 -138 471
-376 547 -683 29 -117 32 -351 5 -461 -37 -154 -99 -286 -192 -407 -30 -38
-461 -477 -960 -975 l-905 -905 -906 905 c-523 523 -931 938 -965 984 -150
197 -219 423 -206 675 19 376 233 700 572 867 124 61 230 92 355 103 84 8 112
8 238 -4z"/>
</g>
</svg>
