<?xml version="1.0" standalone="no"?>
<!DOCTYPE svg PUBLIC "-//W3C//DTD SVG 20010904//EN"
 "http://www.w3.org/TR/2001/REC-SVG-20010904/DTD/svg10.dtd">
<svg version="1.0" xmlns="http://www.w3.org/2000/svg"
 width="512.000000pt" height="512.000000pt" viewBox="0 0 512.000000 512.000000"
 preserveAspectRatio="xMidYMid meet">
<metadata>
Created by potrace 1.16, written by Peter Selinger 2001-2019
</metadata>
<g transform="translate(0.000000,512.000000) scale(0.100000,-0.100000)"
fill="#000000" stroke="none">
<path d="M2405 4504 c-38 -8 -106 -33 -150 -53 -194 -92 -321 -234 -391 -436
-26 -74 -28 -95 -34 -280 l-5 -200 -160 -6 c-185 -6 -235 -20 -332 -94 -100
-76 -164 -179 -183 -294 -5 -37 -65 -518 -132 -1071 -109 -907 -120 -1011
-110 -1068 31 -184 174 -339 357 -387 52 -13 218 -15 1295 -15 1077 0 1243 2
1295 15 183 48 326 203 357 387 10 57 -1 162 -111 1068 -66 553 -126 1034
-131 1069 -20 117 -84 221 -183 296 -97 74 -147 88 -332 94 l-160 6 -5 200
c-6 185 -8 206 -34 280 -81 235 -252 400 -491 475 -93 29 -262 36 -360 14z
m276 -158 c205 -44 381 -214 434 -421 10 -41 15 -110 15 -227 l0 -168 -570 0
-570 0 0 168 c0 257 35 359 169 492 144 143 327 197 522 156z m-851 -1125 l0
-150 26 -20 c39 -31 77 -27 108 10 25 30 26 35 26 170 l0 139 570 0 570 0 0
-136 c0 -136 6 -166 39 -191 24 -19 65 -15 95 8 l26 20 0 151 0 150 153 -4
c169 -4 198 -12 277 -84 64 -58 88 -121 105 -270 8 -71 64 -536 125 -1034 74
-601 109 -920 105 -951 -9 -67 -63 -157 -120 -200 -96 -73 -8 -69 -1376 -69
-1107 0 -1233 2 -1276 16 -103 35 -174 108 -209 214 l-18 54 114 931 c62 511
119 983 126 1047 14 128 33 184 83 241 75 84 138 106 314 107 l137 0 0 -149z"/>
</g>
</svg>
