<svg width="163" height="63" viewBox="0 0 163 63" fill="none" xmlns="http://www.w3.org/2000/svg">
<path d="M36.5502 40.9498C36.4169 41.3165 36.2669 41.7498 36.1002 42.2498C35.8002 43.1498 35.5335 44.0331 35.3002 44.8998C36.3335 43.4998 37.1669 42.3331 37.8002 41.3998C38.4669 40.3998 39.3835 39.2498 40.5502 37.9498C42.5169 35.7165 43.5335 34.5998 43.6002 34.5998C43.7002 34.5665 43.8669 34.4165 44.1002 34.1498C46.3335 31.5165 49.7002 27.7331 54.2002 22.7998C60.7002 15.6331 66.4002 9.6498 71.3002 4.8498C74.6002 1.61647 76.4835 -0.000198126 76.9502 -0.000198126C77.0835 -0.000198126 77.2002 0.0664687 77.3002 0.199802C77.4335 0.333136 77.5169 0.433136 77.5502 0.499801C77.5502 0.566469 77.5169 0.66647 77.4502 0.799803C77.4502 0.999803 76.5169 2.43314 74.6502 5.0998L72.4502 8.2498C67.4502 15.6165 63.3335 23.3998 60.1002 31.5998C59.5669 32.9665 59.2669 33.6665 59.2002 33.6998C59.1669 33.7331 59.0002 34.1165 58.7002 34.8498C58.0002 36.6165 57.3002 38.5831 56.6002 40.7498C55.5335 43.9831 54.6669 46.8831 54.0002 49.4498C53.5335 51.1165 53.1502 52.3665 52.8502 53.1998C52.3502 54.4998 51.8002 55.1831 51.2002 55.2498H51.0502C50.2169 55.2498 49.8002 54.5498 49.8002 53.1498C49.8002 50.3165 51.6169 44.5498 55.2502 35.8498C55.4169 35.4165 55.6169 34.8165 55.8502 34.0498C56.1169 33.2498 56.3169 32.8331 56.4502 32.7998L57.3502 30.9498C61.2502 22.5165 65.4169 15.1331 69.8502 8.7998C70.8502 7.3998 71.3835 6.61647 71.4502 6.4498C71.1835 6.6498 69.4169 8.43313 66.1502 11.7998C60.1835 17.8998 53.7169 24.9665 46.7502 32.9998C42.7835 37.7665 39.8669 41.3165 38.0002 43.6498C35.6335 46.6165 34.3002 48.5498 34.0002 49.4498C33.1335 52.5498 32.4502 54.3498 31.9502 54.8498C31.7169 55.1165 31.4169 55.2498 31.0502 55.2498C30.2169 55.2498 29.8002 54.5498 29.8002 53.1498C29.8002 51.1498 30.7002 47.6831 32.5002 42.7498H32.5502C33.2835 40.6831 34.1835 38.3831 35.2502 35.8498C35.4169 35.4165 36.1169 33.7831 37.3502 30.9498C41.2502 22.5165 45.4169 15.1331 49.8502 8.7998C50.8502 7.3998 51.3835 6.61647 51.4502 6.4498C51.1835 6.6498 49.4169 8.43313 46.1502 11.7998C40.1835 17.8998 33.7169 24.9665 26.7502 32.9998C23.2502 37.1998 19.0002 42.2165 14.0002 48.0498C11.7669 50.6831 9.93353 52.7331 8.5002 54.1998C7.23353 55.7331 6.26686 56.6331 5.6002 56.8998C4.76686 57.2665 3.78353 57.4998 2.6502 57.5998H2.4502C2.11686 57.5998 1.61686 57.5331 0.950195 57.3998C0.883528 57.3665 0.816862 57.3331 0.750195 57.2998C0.650195 57.2665 0.566862 57.2165 0.500195 57.1498C0.400195 57.0831 0.300195 56.9165 0.200195 56.6498C0.0668619 56.4165 0.000195175 56.2331 0.000195175 56.0998C0.000195175 55.7998 0.116862 55.4831 0.350195 55.1498C0.650195 54.6831 0.983528 54.4498 1.35019 54.4498C1.58353 54.4498 1.78353 54.5165 1.9502 54.6498C2.3502 54.8165 2.7002 54.8831 3.0002 54.8498C3.6002 54.8165 4.5002 54.4831 5.7002 53.8498C6.63353 53.3165 10.3335 49.4165 16.8002 42.1498L20.5502 37.9498C25.1502 32.7831 29.7002 27.7331 34.2002 22.7998C40.7002 15.6331 46.4002 9.6498 51.3002 4.8498C54.6002 1.61647 56.4835 -0.000198126 56.9502 -0.000198126C57.0835 -0.000198126 57.2002 0.0664687 57.3002 0.199802C57.4335 0.333136 57.5169 0.433136 57.5502 0.499801C57.5502 0.566469 57.5169 0.66647 57.4502 0.799803C57.4502 0.999803 56.5169 2.43314 54.6502 5.0998L52.4502 8.2498C47.4502 15.6165 43.3335 23.3998 40.1002 31.5998C39.5669 32.9665 39.2669 33.6665 39.2002 33.6998C39.1669 33.7331 39.0002 34.1165 38.7002 34.8498C38.0002 36.6165 37.3002 38.5831 36.6002 40.7498C36.5669 40.8165 36.5502 40.8831 36.5502 40.9498ZM79.8912 35.3498V35.3998C80.2245 35.2331 80.6245 35.0665 81.0912 34.8998C81.5579 34.7331 81.9579 34.5998 82.2912 34.4998C82.2912 34.7331 82.2912 34.9665 82.2912 35.1998C82.1912 35.1998 81.7912 35.3498 81.0912 35.6498C80.4245 35.9498 79.6912 36.2998 78.8912 36.6998C78.2579 37.0331 77.5745 37.3998 76.8412 37.7998C76.1412 38.1998 75.5245 38.5665 74.9912 38.8998C74.4579 39.1998 74.1579 39.3831 74.0912 39.4498C74.0579 39.4831 74.0079 39.5498 73.9412 39.6498C73.9079 39.7165 73.8579 39.8331 73.7912 39.9998C72.2912 43.6331 70.4745 47.1665 68.3412 50.5998C66.2079 54.0665 64.0745 56.8665 61.9412 58.9998C59.6745 61.2331 57.9912 62.0665 56.8912 61.4998C55.8245 60.9665 55.7579 59.3831 56.6912 56.7498C57.9245 53.4165 60.4912 49.7998 64.3912 45.8998C66.3912 43.9665 68.7912 42.0331 71.5912 40.0998L72.3412 39.5998L72.7912 38.4998C73.2912 37.1331 73.7079 35.8665 74.0412 34.6998C74.4079 33.4998 74.6245 32.6165 74.6912 32.0498V31.4998L73.0912 32.6998C70.2245 34.9331 68.3579 36.0498 67.4912 36.0498C67.2912 36.0498 67.0912 35.9998 66.8912 35.8998C66.7245 35.7998 66.5912 35.6665 66.4912 35.4998C66.2912 35.0331 66.2745 34.3665 66.4412 33.4998C66.4745 33.3665 66.5079 33.2498 66.5412 33.1498C66.5412 33.0498 66.5412 32.9998 66.5412 32.9998C66.5412 32.9998 66.5579 32.9665 66.5912 32.8998C66.6245 32.7998 66.6745 32.6831 66.7412 32.5498C66.8079 32.4165 66.8579 32.2831 66.8912 32.1498C66.9579 32.0165 67.0079 31.9165 67.0412 31.8498C67.0745 31.7498 67.0912 31.6998 67.0912 31.6998L67.2912 31.0498C67.4245 30.6498 67.5579 30.3998 67.6912 30.2998C67.8245 30.1665 68.0245 30.0998 68.2912 30.0998C68.3912 30.0998 68.4745 30.1498 68.5412 30.2498C68.6412 30.3498 68.7245 30.4831 68.7912 30.6498C68.8912 30.9498 68.7912 31.2998 68.4912 31.6998C68.1912 32.1331 67.9079 32.6165 67.6412 33.1498C67.4079 33.6831 67.2579 34.1331 67.1912 34.4998C67.1579 34.6331 67.1412 34.7498 67.1412 34.8498C67.1745 34.9165 67.2245 34.9665 67.2912 34.9998C67.5912 35.3331 68.3745 35.1165 69.6412 34.3498C69.8079 34.2498 69.9912 34.1331 70.1912 33.9998C70.4245 33.8331 70.7245 33.6165 71.0912 33.3498C71.4579 33.0498 71.9912 32.6331 72.6912 32.0998C72.9579 31.8998 73.2245 31.6998 73.4912 31.4998C73.7579 31.2998 73.9745 31.1498 74.1412 31.0498C74.3745 30.9165 74.5412 30.7998 74.6412 30.6998C74.7412 30.5998 74.8245 30.4998 74.8912 30.3998C75.0245 30.1331 75.2079 29.9665 75.4412 29.8998C75.6745 29.7998 75.9079 29.8165 76.1412 29.9498C76.5745 30.3165 76.6912 30.7831 76.4912 31.3498C76.4245 31.4498 76.3579 31.6331 76.2912 31.8998C76.2245 32.1331 76.1579 32.3998 76.0912 32.6998C75.7912 34.1331 75.4079 35.5331 74.9412 36.8998C74.8079 37.2665 74.6912 37.5665 74.5912 37.7998C74.5245 38.0331 74.4912 38.1498 74.4912 38.1498C74.4912 38.1498 74.5912 38.0998 74.7912 37.9998C74.9912 37.8998 75.2245 37.7665 75.4912 37.5998C76.1579 37.2331 76.9079 36.8498 77.7412 36.4498C78.5745 36.0165 79.2912 35.6498 79.8912 35.3498ZM69.9412 44.7998H69.9912C70.2245 44.2998 70.4745 43.7498 70.7412 43.1498C71.0412 42.5498 71.2912 42.0331 71.4912 41.5998C71.7245 41.1331 71.8245 40.8998 71.7912 40.8998C71.7579 40.8998 71.5412 41.0331 71.1412 41.2998C70.7745 41.5665 70.3245 41.8998 69.7912 42.2998C69.2912 42.6665 68.8412 42.9998 68.4412 43.2998C65.2745 45.7331 62.7412 48.2165 60.8412 50.7498C59.5745 52.4498 58.5912 54.0498 57.8912 55.5498C57.6912 55.9498 57.5079 56.4165 57.3412 56.9498C57.1745 57.5165 57.0579 57.9665 56.9912 58.2998C56.9245 58.6665 56.9079 59.0331 56.9412 59.3998C56.9412 59.7998 56.9912 60.0665 57.0912 60.1998C57.2912 60.4331 57.6745 60.3998 58.2412 60.0998C58.9412 59.7665 59.8745 58.9998 61.0412 57.7998C61.6412 57.1665 62.2079 56.5498 62.7412 55.9498C63.2412 55.3498 63.7912 54.6665 64.3912 53.8998C66.4245 51.1665 68.2745 48.1331 69.9412 44.7998ZM89.1049 27.1498L89.0049 27.2498C90.5049 27.6165 91.3382 28.5998 91.5049 30.1998C91.5715 31.5331 91.0882 33.0331 90.0549 34.6998C88.1882 37.3998 86.1049 38.5498 83.8049 38.1498C82.8382 37.9498 82.1715 37.5165 81.8049 36.8498L81.6049 36.4998L81.0049 37.5998L80.4549 38.7498V39.3498C80.4549 40.9831 79.9882 42.8331 79.0549 44.8998C78.7549 45.5998 78.3382 46.4165 77.8049 47.3498C77.2382 48.2498 76.6549 49.1331 76.0549 49.9998C75.8882 50.2665 75.6382 50.5831 75.3049 50.9498C74.9382 51.3165 74.6049 51.6498 74.3049 51.9498C73.9715 52.2498 73.7715 52.3998 73.7049 52.3998C73.6715 52.3998 73.6215 52.3665 73.5549 52.2998C73.4882 52.2665 73.4215 52.2165 73.3549 52.1498C73.3215 52.1165 73.3049 52.0998 73.3049 52.0998C73.2049 52.0331 73.1382 51.9665 73.1049 51.8998C73.0715 51.8665 73.0715 51.7831 73.1049 51.6498C73.1049 51.6165 73.1215 51.5665 73.1549 51.4998C73.2215 51.2665 73.3049 51.0165 73.4049 50.7498C73.5049 50.5165 73.7382 50.0165 74.1049 49.2498C74.4715 48.4831 74.8882 47.6498 75.3549 46.7498C75.7882 45.8498 76.1882 45.0665 76.5549 44.3998C76.7549 43.9998 77.0382 43.4665 77.4049 42.7998C77.7715 42.0998 78.1049 41.4165 78.4049 40.7498C78.4715 40.5831 78.5549 40.4331 78.6549 40.2998C78.9882 39.6998 79.2215 39.2498 79.3549 38.9498C79.4882 38.6165 79.5715 38.3498 79.6049 38.1498C79.6049 37.9498 79.5882 37.6831 79.5549 37.3498C79.5215 37.2498 79.5049 37.1498 79.5049 37.0498C79.4382 36.4831 79.4215 35.9165 79.4549 35.3498C79.4549 34.7498 79.5049 34.2831 79.6049 33.9498C79.9715 32.5498 80.7215 31.2831 81.8549 30.1498L82.4549 29.5498C82.4549 29.5498 82.5049 29.5165 82.6049 29.4498C82.7049 29.3498 82.8215 29.2498 82.9549 29.1498C83.1215 29.0498 83.2715 28.9498 83.4049 28.8498C84.3715 28.1165 85.4049 27.5831 86.5049 27.2498C86.8715 27.1498 87.3049 27.0998 87.8049 27.0998C88.3382 27.0665 88.7715 27.0831 89.1049 27.1498ZM79.6049 40.8998L79.7049 40.5498L79.1049 41.7498C78.9382 42.0831 78.7382 42.5165 78.5049 43.0498C78.2382 43.5498 78.0049 44.0331 77.8049 44.4998C77.2715 45.5665 76.7382 46.6498 76.2049 47.7498C75.6715 48.8165 75.2549 49.6165 74.9549 50.1498C74.8215 50.3498 74.7215 50.5331 74.6549 50.6998C74.5549 50.8665 74.5049 50.9498 74.5049 50.9498C74.5049 50.9498 74.5215 50.9331 74.5549 50.8998C74.5882 50.8998 74.6382 50.8498 74.7049 50.7498C74.7715 50.6831 74.8549 50.5665 74.9549 50.3998C76.0882 48.9665 77.1382 47.2165 78.1049 45.1498C79.0049 43.3498 79.5049 41.9331 79.6049 40.8998ZM81.5049 34.9498L81.6049 35.0498C81.9049 34.4165 82.1882 33.8165 82.4549 33.2498C82.7549 32.6498 82.9715 32.1998 83.1049 31.8998C83.3049 31.3998 83.4549 30.9665 83.5549 30.5998C83.6882 30.2331 83.7382 30.0165 83.7049 29.9498C83.6715 29.9165 83.5549 29.9831 83.3549 30.1498C83.1549 30.3165 82.9215 30.5331 82.6549 30.7998C82.3882 31.0665 82.1215 31.3498 81.8549 31.6498C81.5882 31.9165 81.3882 32.1498 81.2549 32.3498C80.5215 33.4831 80.1549 34.5331 80.1549 35.4998C80.1549 35.6998 80.1715 35.9331 80.2049 36.1998C80.2049 36.4665 80.2215 36.6998 80.2549 36.8998C80.2882 37.0665 80.3215 37.1498 80.3549 37.1498C80.3882 37.1498 80.5215 36.9331 80.7549 36.4998C80.9549 36.0665 81.2049 35.5498 81.5049 34.9498ZM88.5549 35.0498V35.0998C89.2882 34.3331 89.8549 33.5165 90.2549 32.6498C90.6882 31.7498 90.8882 30.9665 90.8549 30.2998C90.7549 29.2665 90.2549 28.5831 89.3549 28.2498C88.2549 27.9165 86.9049 28.1498 85.3049 28.9498C85.0715 29.0498 84.9215 29.1331 84.8549 29.1998C84.8215 29.2331 84.8382 29.2831 84.9049 29.3498C84.9382 29.4165 84.9382 29.5165 84.9049 29.6498C84.9049 29.7498 84.8549 29.9165 84.7549 30.1498C84.6882 30.3831 84.5382 30.7331 84.3049 31.1998C84.1049 31.6331 83.8215 32.2165 83.4549 32.9498C83.4215 33.0165 83.3882 33.0998 83.3549 33.1998C83.1215 33.6665 82.9215 34.0665 82.7549 34.3998C82.6215 34.6998 82.5049 34.9498 82.4049 35.1498C82.3049 35.3498 82.2382 35.4998 82.2049 35.5998C82.1715 35.6998 82.1549 35.7831 82.1549 35.8498C82.1549 35.8831 82.1715 35.8998 82.2049 35.8998C82.2382 35.9331 82.2882 35.9831 82.3549 36.0498C82.4215 36.1165 82.4882 36.1998 82.5549 36.2998C82.7882 36.6331 83.1382 36.8498 83.6049 36.9498C83.8715 37.0165 84.1715 37.0498 84.5049 37.0498C84.8715 37.0498 85.2215 37.0165 85.5549 36.9498C86.6215 36.6498 87.6215 36.0165 88.5549 35.0498ZM93.0807 33.5998C92.9473 33.9998 92.7973 34.4331 92.6307 34.8998C92.2307 36.0665 91.8473 36.7498 91.4807 36.9498C91.1807 37.1165 90.9307 37.1165 90.7307 36.9498C90.5307 36.7831 90.4473 36.5331 90.4807 36.1998C90.514 35.9331 90.6473 35.5165 90.8807 34.9498C91.0807 34.3498 91.3307 33.6998 91.6307 32.9998C91.9307 32.3331 92.1973 31.6498 92.4307 30.9498C92.664 30.2498 92.864 29.6498 93.0307 29.1498C93.0973 28.9498 93.1473 28.7831 93.1807 28.6498C93.1807 28.5831 93.1973 28.5498 93.2307 28.5498V28.4498L93.4307 27.8498C93.664 27.2165 93.9307 26.8165 94.2307 26.6498C94.7307 26.3831 95.1807 26.4998 95.5807 26.9998C95.6473 27.1331 95.6807 27.3498 95.6807 27.6498C95.714 27.9165 95.6973 28.1331 95.6307 28.2998C95.564 28.3665 95.4807 28.4998 95.3807 28.6998C95.2807 28.8998 95.1807 29.1331 95.0807 29.3998C94.914 29.6665 94.6973 30.0831 94.4307 30.6498C94.164 31.1831 93.8973 31.7331 93.6307 32.2998L93.4307 32.7998C93.5973 32.9998 94.0307 33.0165 94.7307 32.8498C95.0973 32.7165 95.6307 32.4665 96.3307 32.0998C97.064 31.6998 97.814 31.2831 98.5807 30.8498C99.3807 30.3831 100.314 29.8665 101.381 29.2998C101.781 28.7665 102.064 28.1831 102.231 27.5498C102.464 27.2165 102.797 27.1165 103.231 27.2498C103.297 27.2831 103.347 27.3331 103.381 27.3998C103.547 27.5665 103.381 28.0998 102.881 28.9998C102.414 29.8665 101.964 30.6165 101.531 31.2498C101.131 31.9498 100.747 32.7165 100.381 33.5498C100.047 34.3831 99.8307 35.0331 99.7307 35.4998C99.7307 35.6331 99.7307 35.7331 99.7307 35.7998C99.764 35.8665 99.7973 35.9331 99.8307 35.9998C99.9307 36.1331 100.064 36.1998 100.231 36.1998C100.431 36.1998 100.697 36.1331 101.031 35.9998C102.197 35.5998 104.864 33.8831 109.031 30.8498C109.664 30.3498 110.114 29.9831 110.381 29.7498V30.2998C110.114 30.5331 109.714 30.8331 109.181 31.1998C106.781 33.0998 104.981 34.4498 103.781 35.2498C102.581 36.0498 101.631 36.5498 100.931 36.7498C99.9307 37.0831 99.2307 36.8831 98.8307 36.1498C98.7307 35.9165 98.6807 35.6331 98.6807 35.2998C98.6807 34.9331 98.7307 34.5665 98.8307 34.1998C98.964 33.8331 99.164 33.3831 99.4307 32.8498C99.7307 32.3165 100.031 31.7998 100.331 31.2998C100.497 31.0665 100.631 30.8831 100.731 30.7498C100.864 30.5831 100.914 30.4998 100.881 30.4998C100.781 30.4998 100.014 30.8998 98.5807 31.6998C96.8473 32.6998 95.5473 33.3165 94.6807 33.5498C94.014 33.7498 93.4807 33.7665 93.0807 33.5998ZM120.814 30.8498V30.9498C120.914 30.9831 120.981 31.0498 121.014 31.1498C121.047 31.2498 121.047 31.3498 121.014 31.4498C120.981 31.5165 120.914 31.5331 120.814 31.4998C119.414 31.4998 117.347 31.8331 114.614 32.4998L113.164 32.8498L112.914 33.2998C112.547 34.0665 112.014 34.8498 111.314 35.6498C110.614 36.4498 109.914 37.1165 109.214 37.6498C107.847 38.6831 106.981 38.7331 106.614 37.7998C106.547 37.6998 106.497 37.5998 106.464 37.4998C106.431 37.3998 106.414 37.2831 106.414 37.1498C106.414 37.0165 106.414 36.8331 106.414 36.5998V35.7498C106.414 35.7498 106.447 35.6831 106.514 35.5498C106.547 35.3831 106.597 35.2165 106.664 35.0498C106.731 34.8498 106.797 34.6665 106.864 34.4998C106.931 34.3331 106.981 34.2165 107.014 34.1498C107.081 34.0165 107.164 33.8831 107.264 33.7498C107.364 33.6165 107.447 33.5165 107.514 33.4498L107.814 33.1998L107.614 32.9998C106.947 32.1665 107.314 31.0498 108.714 29.6498C109.881 28.6165 110.981 28.1831 112.014 28.3498C112.914 28.5498 113.481 29.0165 113.714 29.7498C113.781 29.9831 113.797 30.2831 113.764 30.6498C113.764 30.9831 113.714 31.3165 113.614 31.6498C113.547 31.8165 113.497 31.9498 113.464 32.0498C113.464 32.1498 113.481 32.1998 113.514 32.1998C113.547 32.1998 113.697 32.1665 113.964 32.0998C114.231 32.0331 114.564 31.9498 114.964 31.8498C116.664 31.3498 117.897 31.0665 118.664 30.9998C119.364 30.8998 120.081 30.8498 120.814 30.8498ZM111.814 33.3998L111.964 33.1498L111.814 33.1998C111.681 33.2331 111.447 33.2665 111.114 33.2998C110.814 33.3665 110.531 33.4165 110.264 33.4498C109.997 33.4831 109.781 33.5165 109.614 33.5498L109.114 33.5998V33.8498C109.114 33.9165 109.081 34.0165 109.014 34.1498C108.981 34.2498 108.931 34.3498 108.864 34.4498C108.731 34.6831 108.581 34.9998 108.414 35.3998C108.247 35.7998 108.097 36.1998 107.964 36.5998C107.831 36.9665 107.764 37.2165 107.764 37.3498C107.764 37.4498 107.981 37.3498 108.414 37.0498C108.914 36.7165 109.514 36.1665 110.214 35.3998C110.914 34.6331 111.447 33.9665 111.814 33.3998ZM112.714 31.8498H112.664C113.397 30.4165 113.281 29.5998 112.314 29.3998C112.047 29.3331 111.731 29.3165 111.364 29.3498C110.997 29.3831 110.697 29.4498 110.464 29.5498C109.764 29.8498 109.164 30.2998 108.664 30.8998C108.164 31.4998 107.964 31.9998 108.064 32.3998C108.264 32.8998 109.247 33.0165 111.014 32.7498C111.081 32.7498 111.164 32.7331 111.264 32.6998C111.631 32.6665 111.897 32.6331 112.064 32.5998C112.231 32.5331 112.347 32.4498 112.414 32.3498C112.514 32.2498 112.614 32.0998 112.714 31.8998C112.714 31.8665 112.714 31.8498 112.714 31.8498ZM128.167 27.1498L128.067 27.2498C129.567 27.6165 130.401 28.5998 130.567 30.1998C130.634 31.5331 130.151 33.0331 129.117 34.6998C127.251 37.3998 125.167 38.5498 122.867 38.1498C121.901 37.9498 121.234 37.5165 120.867 36.8498L120.667 36.4998L120.067 37.5998L119.517 38.7498V39.3498C119.517 40.9831 119.051 42.8331 118.117 44.8998C117.817 45.5998 117.401 46.4165 116.867 47.3498C116.301 48.2498 115.717 49.1331 115.117 49.9998C114.951 50.2665 114.701 50.5831 114.367 50.9498C114.001 51.3165 113.667 51.6498 113.367 51.9498C113.034 52.2498 112.834 52.3998 112.767 52.3998C112.734 52.3998 112.684 52.3665 112.617 52.2998C112.551 52.2665 112.484 52.2165 112.417 52.1498C112.384 52.1165 112.367 52.0998 112.367 52.0998C112.267 52.0331 112.201 51.9665 112.167 51.8998C112.134 51.8665 112.134 51.7831 112.167 51.6498C112.167 51.6165 112.184 51.5665 112.217 51.4998C112.284 51.2665 112.367 51.0165 112.467 50.7498C112.567 50.5165 112.801 50.0165 113.167 49.2498C113.534 48.4831 113.951 47.6498 114.417 46.7498C114.851 45.8498 115.251 45.0665 115.617 44.3998C115.817 43.9998 116.101 43.4665 116.467 42.7998C116.834 42.0998 117.167 41.4165 117.467 40.7498C117.534 40.5831 117.617 40.4331 117.717 40.2998C118.051 39.6998 118.284 39.2498 118.417 38.9498C118.551 38.6165 118.634 38.3498 118.667 38.1498C118.667 37.9498 118.651 37.6831 118.617 37.3498C118.584 37.2498 118.567 37.1498 118.567 37.0498C118.501 36.4831 118.484 35.9165 118.517 35.3498C118.517 34.7498 118.567 34.2831 118.667 33.9498C119.034 32.5498 119.784 31.2831 120.917 30.1498L121.517 29.5498C121.517 29.5498 121.567 29.5165 121.667 29.4498C121.767 29.3498 121.884 29.2498 122.017 29.1498C122.184 29.0498 122.334 28.9498 122.467 28.8498C123.434 28.1165 124.467 27.5831 125.567 27.2498C125.934 27.1498 126.367 27.0998 126.867 27.0998C127.401 27.0665 127.834 27.0831 128.167 27.1498ZM118.667 40.8998L118.767 40.5498L118.167 41.7498C118.001 42.0831 117.801 42.5165 117.567 43.0498C117.301 43.5498 117.067 44.0331 116.867 44.4998C116.334 45.5665 115.801 46.6498 115.267 47.7498C114.734 48.8165 114.317 49.6165 114.017 50.1498C113.884 50.3498 113.784 50.5331 113.717 50.6998C113.617 50.8665 113.567 50.9498 113.567 50.9498C113.567 50.9498 113.584 50.9331 113.617 50.8998C113.651 50.8998 113.701 50.8498 113.767 50.7498C113.834 50.6831 113.917 50.5665 114.017 50.3998C115.151 48.9665 116.201 47.2165 117.167 45.1498C118.067 43.3498 118.567 41.9331 118.667 40.8998ZM120.567 34.9498L120.667 35.0498C120.967 34.4165 121.251 33.8165 121.517 33.2498C121.817 32.6498 122.034 32.1998 122.167 31.8998C122.367 31.3998 122.517 30.9665 122.617 30.5998C122.751 30.2331 122.801 30.0165 122.767 29.9498C122.734 29.9165 122.617 29.9831 122.417 30.1498C122.217 30.3165 121.984 30.5331 121.717 30.7998C121.451 31.0665 121.184 31.3498 120.917 31.6498C120.651 31.9165 120.451 32.1498 120.317 32.3498C119.584 33.4831 119.217 34.5331 119.217 35.4998C119.217 35.6998 119.234 35.9331 119.267 36.1998C119.267 36.4665 119.284 36.6998 119.317 36.8998C119.351 37.0665 119.384 37.1498 119.417 37.1498C119.451 37.1498 119.584 36.9331 119.817 36.4998C120.017 36.0665 120.267 35.5498 120.567 34.9498ZM127.617 35.0498V35.0998C128.351 34.3331 128.917 33.5165 129.317 32.6498C129.751 31.7498 129.951 30.9665 129.917 30.2998C129.817 29.2665 129.317 28.5831 128.417 28.2498C127.317 27.9165 125.967 28.1498 124.367 28.9498C124.134 29.0498 123.984 29.1331 123.917 29.1998C123.884 29.2331 123.901 29.2831 123.967 29.3498C124.001 29.4165 124.001 29.5165 123.967 29.6498C123.967 29.7498 123.917 29.9165 123.817 30.1498C123.751 30.3831 123.601 30.7331 123.367 31.1998C123.167 31.6331 122.884 32.2165 122.517 32.9498C122.484 33.0165 122.451 33.0998 122.417 33.1998C122.184 33.6665 121.984 34.0665 121.817 34.3998C121.684 34.6998 121.567 34.9498 121.467 35.1498C121.367 35.3498 121.301 35.4998 121.267 35.5998C121.234 35.6998 121.217 35.7831 121.217 35.8498C121.217 35.8831 121.234 35.8998 121.267 35.8998C121.301 35.9331 121.351 35.9831 121.417 36.0498C121.484 36.1165 121.551 36.1998 121.617 36.2998C121.851 36.6331 122.201 36.8498 122.667 36.9498C122.934 37.0165 123.234 37.0498 123.567 37.0498C123.934 37.0498 124.284 37.0165 124.617 36.9498C125.684 36.6498 126.684 36.0165 127.617 35.0498ZM141.743 26.2998C141.643 26.2665 141.593 26.1165 141.593 25.8498C141.626 25.5498 141.693 25.2998 141.793 25.0998C141.86 24.9331 141.876 24.8331 141.843 24.7998C141.843 24.7665 141.776 24.7831 141.643 24.8498C141.543 24.8831 141.41 24.9498 141.243 25.0498C140.376 25.4831 139.343 26.2665 138.143 27.3998C136.976 28.4998 135.893 29.6998 134.893 30.9998C134.76 31.1998 134.643 31.3665 134.543 31.4998L134.443 31.5998C133.676 32.7331 133.143 33.4998 132.843 33.8998C133.11 34.6331 133.326 35.3498 133.493 36.0498C133.66 36.7165 133.843 37.5665 134.043 38.5998C134.543 40.9998 134.976 42.7665 135.343 43.8998C135.743 45.0331 136.243 46.0165 136.843 46.8498C137.576 47.9165 138.443 48.5998 139.443 48.8998C139.91 49.0331 140.493 49.0831 141.193 49.0498C141.893 48.9831 142.51 48.8331 143.043 48.5998C143.343 48.4665 143.543 48.3998 143.643 48.3998C143.776 48.3998 143.843 48.4665 143.843 48.5998L143.643 48.4498C143.71 48.5831 143.693 48.6998 143.593 48.7998C143.526 48.8998 143.36 49.0165 143.093 49.1498C142.36 49.5165 141.576 49.7165 140.743 49.7498C139.943 49.8165 139.21 49.7331 138.543 49.4998C137.51 49.0998 136.56 48.2665 135.693 46.9998C135.16 46.1998 134.726 45.3331 134.393 44.3998C134.06 43.4665 133.676 42.0165 133.243 40.0498C132.843 38.4831 132.543 37.3831 132.343 36.7498C132.176 36.0831 132.01 35.6998 131.843 35.5998C131.81 35.5665 131.776 35.5498 131.743 35.5498C131.71 35.5498 131.676 35.5665 131.643 35.5998C131.576 35.6665 131.426 35.8998 131.193 36.2998C130.96 36.6998 130.71 37.1498 130.443 37.6498C130.143 38.1165 129.893 38.5165 129.693 38.8498C129.36 39.4498 129.126 39.9498 128.993 40.3498C128.826 40.7165 128.71 41.0665 128.643 41.3998C128.476 42.0331 128.276 42.2165 128.043 41.9498C128.01 41.9165 127.993 41.8998 127.993 41.8998C127.96 41.8665 127.926 41.8665 127.893 41.8998C127.86 41.9331 127.826 41.9665 127.793 41.9998C127.726 41.9998 127.66 41.9998 127.593 41.9998C127.46 41.9998 127.343 41.9498 127.243 41.8498C127.11 41.7165 127.043 41.5831 127.043 41.4498C127.043 41.1498 127.276 40.4498 127.743 39.3498C128.176 38.2498 128.743 36.9498 129.443 35.4498L129.643 35.0498C129.843 34.7165 130.226 33.9998 130.793 32.8998C131.36 31.7998 132.31 29.9165 133.643 27.2498C134.243 26.1165 134.843 24.9498 135.443 23.7498C136.176 22.3165 136.743 21.2165 137.143 20.4498C137.21 20.3498 137.26 20.2331 137.293 20.0998C137.626 19.4665 137.943 18.8665 138.243 18.2998C138.576 17.6998 138.826 17.2498 138.993 16.9498C139.993 15.1165 140.526 13.6831 140.593 12.6498C140.626 12.4831 140.66 12.3331 140.693 12.1998C140.726 12.0331 140.76 11.9165 140.793 11.8498C140.993 11.4831 141.26 11.2998 141.593 11.2998C141.926 11.2665 142.21 11.4165 142.443 11.7498V11.9498C142.476 12.0498 142.493 12.1665 142.493 12.2998C142.493 12.3998 142.493 12.4831 142.493 12.5498C142.493 12.6165 142.46 12.6998 142.393 12.7998C142.36 12.8998 142.293 13.0498 142.193 13.2498C142.093 13.4165 141.96 13.6498 141.793 13.9498C141.426 14.6165 140.843 15.7165 140.043 17.2498C139.243 18.7831 138.41 20.4165 137.543 22.1498C136.676 23.8831 135.943 25.3665 135.343 26.5998L134.043 29.3998C133.543 30.4665 133.126 31.3831 132.793 32.1498C132.46 32.8831 132.293 33.2665 132.293 33.2998C132.36 33.4331 132.76 32.9498 133.493 31.8498C134.96 29.7831 136.41 28.0831 137.843 26.7498C139.843 24.8831 141.243 23.9498 142.043 23.9498C142.21 23.9498 142.326 23.9665 142.393 23.9998C142.46 24.0331 142.526 24.0831 142.593 24.1498H142.643C143.043 24.6165 142.86 25.2831 142.093 26.1498C142.026 26.2498 141.91 26.2998 141.743 26.2998ZM161.083 31.6498H161.133C161.367 31.5498 161.567 31.5665 161.733 31.6998C161.933 31.7998 162.033 31.9831 162.033 32.2498C162.033 32.4831 161.883 32.6831 161.583 32.8498C161.417 32.9498 161.233 33.0331 161.033 33.0998C159.2 33.8665 157.767 34.4498 156.733 34.8498C155.733 35.2498 154.967 35.5331 154.433 35.6998C153.933 35.8665 153.5 35.9831 153.133 36.0498C152 36.2498 151.167 36.0498 150.633 35.4498C150.133 34.8831 149.983 34.0831 150.183 33.0498C150.25 32.7165 150.333 32.3331 150.433 31.8998C150.567 31.4665 150.717 31.0831 150.883 30.7498C150.917 30.6498 150.933 30.5665 150.933 30.4998C150.967 30.4331 150.983 30.3998 150.983 30.3998C150.983 30.3998 150.917 30.4498 150.783 30.5498C150.683 30.6498 150.55 30.7665 150.383 30.8998L149.783 31.4498V31.8498C149.583 33.1831 149.15 33.8498 148.483 33.8498C148.35 33.8498 148.217 33.7998 148.083 33.6998C147.95 33.5998 147.85 33.4665 147.783 33.2998C147.783 33.2665 147.767 33.2498 147.733 33.2498C147.733 33.2165 147.717 33.2165 147.683 33.2498C147.65 33.2831 147.583 33.3331 147.483 33.3998C147.383 33.4665 147.25 33.5665 147.083 33.6998C146.917 33.8331 146.7 33.9998 146.433 34.1998C145.367 35.0331 144.5 35.6998 143.833 36.1998C143.167 36.6998 142.55 37.0998 141.983 37.3998C140.017 38.4998 138.75 38.4165 138.183 37.1498C137.983 36.6498 137.95 36.0498 138.083 35.3498C138.65 33.1165 140.35 30.8998 143.183 28.6998C145.383 27.0665 147.133 26.7498 148.433 27.7498C148.833 28.0498 149.117 28.4665 149.283 28.9998C149.35 29.1665 149.4 29.3165 149.433 29.4498C149.5 29.5498 149.55 29.5998 149.583 29.5998C149.65 29.5998 149.833 29.4831 150.133 29.2498C150.433 28.9831 150.767 28.6831 151.133 28.3498C151.5 27.9831 151.85 27.6498 152.183 27.3498C152.517 27.0498 152.733 26.8331 152.833 26.6998C153.167 26.2665 153.5 26.0498 153.833 26.0498C154.333 26.0498 154.583 26.3831 154.583 27.0498C154.55 27.1831 154.483 27.3331 154.383 27.4998C154.317 27.6331 154.217 27.8165 154.083 28.0498C153.817 28.5165 153.517 29.0831 153.183 29.7498C152.85 30.4165 152.583 30.9998 152.383 31.4998C152.217 31.8998 152.067 32.3498 151.933 32.8498C151.8 33.3165 151.7 33.6831 151.633 33.9498C151.6 34.5831 152.133 34.7831 153.233 34.5498C153.8 34.4498 154.567 34.2331 155.533 33.8998C156.5 33.5331 157.917 32.9498 159.783 32.1498C160.25 32.0165 160.683 31.8498 161.083 31.6498ZM146.733 31.9998L146.783 32.0498C147.083 31.8165 147.317 31.6331 147.483 31.4998C147.65 31.3665 147.767 31.2665 147.833 31.1998C147.9 31.0998 147.933 31.0331 147.933 30.9998C147.967 30.9331 147.983 30.8831 147.983 30.8498C147.983 30.7498 147.967 30.6665 147.933 30.5998C147.933 30.5331 147.867 30.4498 147.733 30.3498C147.033 29.8165 145.95 30.0498 144.483 31.0498C144.017 31.3831 143.45 31.8831 142.783 32.5498C142.15 33.2165 141.633 33.7998 141.233 34.2998C140.967 34.6998 140.7 35.0998 140.433 35.4998C140.2 35.8998 140.083 36.1498 140.083 36.2498C140.083 36.3498 140.433 36.2331 141.133 35.8998C142.167 35.3998 144.033 34.0998 146.733 31.9998Z" fill="black"/>
</svg>
